<svg id="Layer_1" enable-background="new 0 0 512.004 512.004" height="512" viewBox="0 0 512.004 512.004" width="512" xmlns="http://www.w3.org/2000/svg"><g><path d="m475.192 84.548c1.669-8.208-6.391-15.053-14.23-12.065l-11.912 4.549c-36.007-45.184-107.67-33.223-127.242 20.884-1.409 3.895.606 8.194 4.502 9.604 3.892 1.409 8.194-.605 9.604-4.502 14.809-40.938 67.968-52.419 98.214-20.287l-8.076 3.084c-7.827 2.988-9.288 13.466-2.569 18.479l27.97 20.868c0 .001.001.001.001.001 6.266 4.672 15.246 1.227 16.8-6.415zm-20.275 24.484-16.121-12.028 20.122-7.684z"/><path d="m456.246 138.538c-3.895-1.405-8.194.608-9.602 4.506-15.058 41.686-69.511 52.466-99.192 19.297l7.957-3.039c7.824-2.988 9.29-13.466 2.569-18.478-.001 0-27.972-20.871-27.973-20.871-6.259-4.67-15.246-1.227-16.798 6.417l-6.94 34.197c-1.669 8.212 6.401 15.057 14.23 12.066l12.171-4.648c35.49 46.324 108.318 34.871 128.083-19.847 1.408-3.893-.609-8.192-4.505-9.6zm-133.704 17.26 4.001-19.713 16.121 12.028z"/><path d="m331.154 18.376c-120.892-34.672-331.154-11.066-331.154 51.388v372.613c0 43.812 102.729 67.451 199.388 67.451s199.388-23.64 199.388-67.451c0-16.035 0-94.465 0-108.854 0-4.143-3.357-7.5-7.5-7.5s-7.5 3.357-7.5 7.5v15.701c0 23.974-74.305 52.451-184.388 52.451-110.08 0-184.388-28.477-184.388-52.451v-66.162c64.9 53.697 303.901 53.676 368.775 0v15.461c0 4.143 3.357 7.5 7.5 7.5s7.5-3.357 7.5-7.5c0-10.906 0-43.486 0-54.99 18.418-1.145 36.384-6.488 52.368-15.633 3.595-2.057 4.842-6.639 2.785-10.234s-6.639-4.843-10.234-2.785c-70.12 40.117-157.136-10.832-158.13-90.493-.738-58.965 47.016-107.075 105.711-107.075 58.299 0 105.729 47.43 105.729 105.729 0 26.521-9.865 51.886-27.777 71.423-2.799 3.053-2.594 7.798.46 10.597 3.052 2.799 7.796 2.593 10.597-.46 20.455-22.312 31.721-51.276 31.721-81.56-.001-92.568-100.639-150.921-180.851-104.666zm52.621 357.851v66.15c0 23.974-74.305 52.451-184.388 52.451-110.079.001-184.387-28.477-184.387-52.451v-66.15c64.903 53.677 303.887 53.665 368.775 0zm-67.003-158.172c19.225 15.133 42.452 23.991 67.003 25.487v12.528c0 23.979-74.324 52.452-184.388 52.452-110.063.001-184.387-28.473-184.387-52.451v-66.149c47.391 39.194 198.344 52.611 301.772 28.133zm-13.511-12.389c-129.482 26.565-288.261-5.294-288.261-42.748v-66.151c44.868 37.122 170.047 46.849 255.956 36.197 2.2 27.248 13.491 52.69 32.305 72.702zm-32.606-87.801c-128.383 16.353-255.655-15.286-255.655-48.101 0-39.421 172.624-70.936 299.817-40.188-26.046 21.213-42.655 52.715-44.162 88.289z"/></g></svg>